<svg width="409" height="411" viewBox="0 0 409 411" fill="none" xmlns="http://www.w3.org/2000/svg">
<rect x="32" y="116" width="20" height="182" fill="#B58C4E" fill-opacity="0.86"/>
<rect x="355" y="116" width="20" height="182" fill="#B58C4E" fill-opacity="0.86"/>
<path d="M43 0H363L409 129H0L43 0Z" fill="white"/>
<path d="M35.5862 0H84V129H0L35.5862 0Z" fill="#FDD148"/>
<path d="M371.719 0H321V129H409L371.719 0Z" fill="#FDD148"/>
<path d="M184.5 0H126V129H184.5V0Z" fill="#FDD148"/>
<path d="M285.5 0H227V129H285.5V0Z" fill="#FDD148"/>
<rect x="20" y="291" width="367" height="43" fill="#E1CDA6"/>
<rect x="20" y="334" width="367" height="77" fill="white"/>
<path d="M78 334H20V411H78V334Z" fill="#FDD148"/>
<path d="M387 334H329V411H387V334Z" fill="#FDD148"/>
<path d="M285 334H227V411H285V334Z" fill="#FDD148"/>
<path d="M184 334H126V411H184V334Z" fill="#FDD148"/>
<path d="M72 281C72.2652 281 72.5196 281.105 72.7071 281.293C72.8946 281.48 73 281.735 73 282C73 282.796 72.6839 283.559 72.1213 284.121C71.5587 284.684 70.7956 285 70 285C69.7348 285 69.4804 284.895 69.2929 284.707C69.1054 284.52 69 284.265 69 284C69 283.204 69.3161 282.441 69.8787 281.879C70.4413 281.316 71.2044 281 72 281Z" fill="#50A040"/>
<path d="M72.714 302C74.96 302 78 297.121 78 294.5C78 291.879 79 286.008 73.318 286.011L73.0863 285.999C72.2924 285.982 71.5395 286.201 70.572 286.627C69.644 287.037 69.546 287.081 69.516 287.084H69.5C69.439 287.084 69.278 287.018 68.491 286.644C67.969 286.396 67.598 286.243 67.195 286.136C66.884 286.053 66.583 286.008 66.286 286.008C62.786 286.008 61 289.058 61 292.928C61 296.907 63.536 302 66.285 302C66.821 301.978 67.21 301.905 67.785 301.752L67.982 301.699C68.637 301.522 68.98 301.462 69.5 301.462C69.931 301.462 70.17 301.508 70.633 301.654L70.731 301.685C71.442 301.909 71.924 302 72.714 302Z" fill="#EA4335"/>
<path d="M92 287C92.2652 287 92.5196 287.105 92.7071 287.293C92.8946 287.48 93 287.735 93 288C93 288.796 92.6839 289.559 92.1213 290.121C91.5587 290.684 90.7956 291 90 291C89.7348 291 89.4804 290.895 89.2929 290.707C89.1054 290.52 89 290.265 89 290C89 289.204 89.3161 288.441 89.8787 287.879C90.4413 287.316 91.2044 287 92 287Z" fill="#50A040"/>
<path d="M92.714 308C94.96 308 98 303.121 98 300.5C98 297.879 99 292.008 93.318 292.011L93.0863 291.999C92.2924 291.982 91.5395 292.201 90.572 292.627C89.644 293.037 89.546 293.081 89.516 293.084H89.5C89.439 293.084 89.278 293.018 88.491 292.644C87.969 292.396 87.598 292.243 87.195 292.136C86.884 292.053 86.583 292.008 86.286 292.008C82.786 292.008 81 295.058 81 298.928C81 302.907 83.536 308 86.285 308C86.821 307.978 87.21 307.905 87.785 307.752L87.982 307.699C88.637 307.522 88.98 307.462 89.5 307.462C89.931 307.462 90.17 307.508 90.633 307.654L90.731 307.685C91.442 307.909 91.924 308 92.714 308Z" fill="#EA4335"/>
<path d="M100 305C100.265 305 100.52 305.105 100.707 305.293C100.895 305.48 101 305.735 101 306C101 306.796 100.684 307.559 100.121 308.121C99.5587 308.684 98.7956 309 98 309C97.7348 309 97.4804 308.895 97.2929 308.707C97.1054 308.52 97 308.265 97 308C97 307.204 97.3161 306.441 97.8787 305.879C98.4413 305.316 99.2044 305 100 305Z" fill="#50A040"/>
<path d="M100.714 326C102.96 326 106 321.121 106 318.5C106 315.879 107 310.008 101.318 310.011L101.086 309.999C100.292 309.982 99.5395 310.201 98.572 310.627C97.644 311.037 97.546 311.081 97.516 311.084H97.5C97.439 311.084 97.278 311.018 96.491 310.644C95.969 310.396 95.598 310.243 95.195 310.136C94.884 310.053 94.583 310.008 94.286 310.008C90.786 310.008 89 313.058 89 316.928C89 320.907 91.536 326 94.285 326C94.821 325.978 95.21 325.905 95.785 325.752L95.982 325.699C96.637 325.522 96.98 325.462 97.5 325.462C97.931 325.462 98.17 325.508 98.633 325.654L98.731 325.685C99.442 325.909 99.924 326 100.714 326Z" fill="#EA4335"/>
<path d="M74 303C74.2652 303 74.5196 303.105 74.7071 303.293C74.8946 303.48 75 303.735 75 304C75 304.796 74.6839 305.559 74.1213 306.121C73.5587 306.684 72.7956 307 72 307C71.7348 307 71.4804 306.895 71.2929 306.707C71.1054 306.52 71 306.265 71 306C71 305.204 71.3161 304.441 71.8787 303.879C72.4413 303.316 73.2044 303 74 303Z" fill="#50A040"/>
<path d="M74.714 324C76.96 324 80 319.121 80 316.5C80 313.879 81 308.008 75.318 308.011L75.0863 307.999C74.2924 307.982 73.5395 308.201 72.572 308.627C71.644 309.037 71.546 309.081 71.516 309.084H71.5C71.439 309.084 71.278 309.018 70.491 308.644C69.969 308.396 69.598 308.243 69.195 308.136C68.884 308.053 68.583 308.008 68.286 308.008C64.786 308.008 63 311.058 63 314.928C63 318.907 65.536 324 68.285 324C68.821 323.978 69.21 323.905 69.785 323.752L69.982 323.699C70.637 323.522 70.98 323.462 71.5 323.462C71.931 323.462 72.17 323.508 72.633 323.654L72.731 323.685C73.442 323.909 73.924 324 74.714 324Z" fill="#EA4335"/>
</svg>
