<svg width="23" height="27" viewBox="0 0 23 27" fill="none" xmlns="http://www.w3.org/2000/svg">
<path d="M11.9472 25.7041C11.7256 25.8633 11.4595 25.9489 11.1866 25.9489C10.9137 25.9489 10.6477 25.8633 10.426 25.7041C3.86698 21.029 -3.09408 11.4125 3.94304 4.46371C5.87494 2.56331 8.47667 1.49881 11.1866 1.5C13.9031 1.5 16.5096 2.56623 18.4302 4.46235C25.4673 11.4112 18.5062 21.0263 11.9472 25.7041Z" stroke="black" stroke-width="1.5" stroke-linecap="round" stroke-linejoin="round"/>
<path d="M11.1862 13.7243C11.9067 13.7243 12.5977 13.4381 13.1071 12.9286C13.6165 12.4192 13.9027 11.7282 13.9027 11.0078C13.9027 10.2873 13.6165 9.59635 13.1071 9.08691C12.5977 8.57746 11.9067 8.29126 11.1862 8.29126C10.4658 8.29126 9.77482 8.57746 9.26537 9.08691C8.75593 9.59635 8.46973 10.2873 8.46973 11.0078C8.46973 11.7282 8.75593 12.4192 9.26537 12.9286C9.77482 13.4381 10.4658 13.7243 11.1862 13.7243Z" stroke="black" stroke-width="1.5" stroke-linecap="round" stroke-linejoin="round"/>
</svg>
