<svg width="27" height="27" viewBox="0 0 27 27" fill="none" xmlns="http://www.w3.org/2000/svg">
<path d="M13.8125 0.125C17.2769 0.125 20.5994 1.50122 23.0491 3.95092C25.4988 6.40061 26.875 9.72311 26.875 13.1875C26.875 16.6519 25.4988 19.9744 23.0491 22.4241C20.5994 24.8738 17.2769 26.25 13.8125 26.25C10.3481 26.25 7.02561 24.8738 4.57592 22.4241C2.12622 19.9744 0.75 16.6519 0.75 13.1875C0.75 9.72311 2.12622 6.40061 4.57592 3.95092C7.02561 1.50122 10.3481 0.125 13.8125 0.125ZM13.8125 1.5C10.7128 1.5 7.74002 2.73136 5.54819 4.92319C3.35636 7.11502 2.125 10.0878 2.125 13.1875C2.125 16.2872 3.35636 19.26 5.54819 21.4518C7.74002 23.6436 10.7128 24.875 13.8125 24.875C15.3473 24.875 16.8671 24.5727 18.2851 23.9853C19.7031 23.398 20.9915 22.5371 22.0768 21.4518C23.1621 20.3665 24.023 19.0781 24.6103 17.6601C25.1977 16.2421 25.5 14.7223 25.5 13.1875C25.5 10.0878 24.2686 7.11502 22.0768 4.92319C19.885 2.73136 16.9122 1.5 13.8125 1.5ZM13.125 5.625H14.5V13.0775L20.9625 16.8037L20.275 18L13.125 13.875V5.625Z" fill="black"/>
</svg>
