<svg width="112" height="95" viewBox="0 0 112 95" fill="none" xmlns="http://www.w3.org/2000/svg">
<path d="M69.6716 64.392L61.4692 57.3287M28.6597 43.2022L36.8621 50.2655M39.5962 80.8729L34.128 76.164M72.4057 0.822754C75.2383 3.26664 77.0811 8.51227 72.4057 15.4719M110.683 33.7846C107.851 31.3407 101.754 29.7538 93.6772 33.7846M95.7989 13.6402L85.1686 22.7942M35.2216 34.1377C23.7383 44.0357 -6.14567 85.5911 3.04645 93.5114C12.2441 101.422 60.5014 75.6979 71.9956 65.8046C83.4789 55.9067 90.3799 49.9735 71.9956 34.1377C53.6114 18.3019 46.7159 24.2492 35.2216 34.1377Z" stroke="black" stroke-width="1.5" stroke-linecap="round" stroke-linejoin="round"/>
</svg>
