<svg width="120" height="120" viewBox="0 0 120 120" fill="none" xmlns="http://www.w3.org/2000/svg">
<path d="M96.6857 80.0571C98.2963 78.5276 99.5789 76.6864 100.455 74.6455C101.332 72.6046 101.784 70.4067 101.784 68.1856C101.784 65.9645 101.332 63.7667 100.455 61.7258C99.5789 59.6849 98.2963 57.8437 96.6857 56.3142C93.3889 53.1852 89.0168 51.4407 84.4715 51.4407C79.9261 51.4407 75.5541 53.1852 72.2572 56.3142L60 68.5714L47.7429 56.3142C44.446 53.1852 40.074 51.4407 35.5286 51.4407C30.9832 51.4407 26.6112 53.1852 23.3143 56.3142C21.7037 57.8437 20.4212 59.6849 19.5448 61.7258C18.6684 63.7667 18.2164 65.9645 18.2164 68.1856C18.2164 70.4067 18.6684 72.6046 19.5448 74.6455C20.4212 76.6864 21.7037 78.5276 23.3143 80.0571L60 115.714L96.6857 80.0571ZM60 38.5714C64.5466 38.5714 68.9069 36.7652 72.1219 33.5503C75.3368 30.3354 77.1429 25.9751 77.1429 21.4285C77.1429 16.8819 75.3368 12.5216 72.1219 9.30667C68.9069 6.09176 64.5466 4.28564 60 4.28564C55.4535 4.28564 51.0931 6.09176 47.8782 9.30667C44.6633 12.5216 42.8572 16.8819 42.8572 21.4285C42.8572 25.9751 44.6633 30.3354 47.8782 33.5503C51.0931 36.7652 55.4535 38.5714 60 38.5714Z" stroke="black" stroke-linecap="round" stroke-linejoin="round"/>
</svg>
