<svg width="120" height="111" viewBox="0 0 120 111" fill="none" xmlns="http://www.w3.org/2000/svg">
<path d="M6.25 56.6563C24.855 56.6563 42.5075 51.8671 55.3125 40.0225C68.1125 28.1825 70.005 11.3498 88.105 10.6653C65.26 -2.9253 40.715 15.3365 27.01 37.1781" stroke="black" stroke-linecap="round" stroke-linejoin="round"/>
<path d="M53.4075 5.78125C26.265 5.78125 6.25 31.5425 6.25 56.6586M91.875 14.8509C99.7 19.0319 111.408 29.0889 113.75 37.1781C100.632 40.4294 84.1575 41.3591 68.4925 32.9924" stroke="black" stroke-linecap="round" stroke-linejoin="round"/>
<path d="M82.0425 21.106C84.1575 21.6286 91.03 24.5331 92.63 26.0154M113.75 54.3412C95.1475 54.3412 77.4925 59.1327 64.69 70.975C51.885 82.8173 49.9975 99.65 31.895 100.335C54.7425 113.925 79.285 95.6633 92.99 73.8217" stroke="black" stroke-linecap="round" stroke-linejoin="round"/>
<path d="M66.5925 105.219C93.735 105.219 113.75 79.4574 113.75 54.3413M28.125 96.149C20.3 91.968 8.595 81.9086 6.25 73.8218C19.3675 70.5704 35.8425 69.6408 51.5075 78.0074" stroke="black" stroke-linecap="round" stroke-linejoin="round"/>
<path d="M37.9576 89.8938C35.8426 89.3689 28.9701 86.4667 27.3701 84.9844" stroke="black" stroke-linecap="round" stroke-linejoin="round"/>
</svg>
