<svg width="581" height="155" viewBox="0 0 581 155" fill="none" xmlns="http://www.w3.org/2000/svg">
<path d="M20.1286 147.699C17.1974 145.416 14.5796 143.254 12.2752 141.214C9.95733 139.161 7.9207 137.226 6.16532 135.407L8.78853 132.933C10.9274 135.188 13.0547 137.252 15.1704 139.125C17.2862 140.999 18.8725 142.343 19.9294 143.159C20.2916 142.614 21.2129 141.302 22.6933 139.223L25.3961 140.895C24.6224 142.013 23.5597 143.621 22.2079 145.718L20.1286 147.699Z" fill="#2B4836"/>
<path d="M28.2424 131.856C29.7052 133.269 30.7493 133.652 31.3746 133.005C31.6498 132.72 31.4734 132.087 30.8455 131.105C30.2046 130.11 29.5088 129.25 28.758 128.524C27.101 126.924 26.0099 126.395 25.4846 126.939C25.1469 127.288 25.3184 128.004 25.9989 129.087C26.6791 130.145 27.4269 131.068 28.2424 131.856ZM25.8727 133.959C24.6688 132.796 23.7284 131.412 23.0516 129.806C22.7192 128.985 22.597 128.166 22.6848 127.35C22.7721 126.508 23.0972 125.796 23.66 125.213C24.2229 124.631 24.8403 124.264 25.5124 124.112C26.184 123.935 26.8462 123.949 27.499 124.154C28.779 124.565 29.9304 125.265 30.953 126.253C32.364 127.616 33.3382 129.12 33.8757 130.766C34.4128 132.386 34.181 133.714 33.1804 134.75C31.0917 136.911 28.6558 136.648 25.8727 133.959Z" fill="#2B4836"/>
<path d="M41.3457 125.856C40.0032 124.549 38.0664 122.566 35.5354 119.906C33.0043 117.245 30.4284 114.342 27.8076 111.195L30.2638 109.194C33.1079 112.575 35.9382 115.746 38.7546 118.706C38.5351 115.76 38.0201 113.181 37.2093 110.971L40.077 110.852C40.7929 112.779 41.3008 114.88 41.6006 117.154C43.7469 117.373 45.61 117.712 47.19 118.172L47.0433 120.994C45.2969 120.569 42.9931 120.289 40.1318 120.154C41.5089 121.601 42.7447 122.848 43.8391 123.894L41.3457 125.856Z" fill="#2B4836"/>
<path d="M46.2552 110.098C45.5327 108.865 45.1353 107.633 45.0631 106.404C44.979 105.161 45.3971 104.136 46.3175 103.329C47.2379 102.522 48.2529 102.315 49.3624 102.707C50.4735 103.073 51.6461 103.96 52.8801 105.368C54.1141 106.776 55.7356 108.789 57.7446 111.409L55.9145 112.761L55.1826 112.254C54.8668 113.177 54.3773 113.93 53.714 114.511C53.0508 115.092 52.3127 115.356 51.4999 115.303C50.6752 115.236 49.901 114.79 49.1772 113.964C48.4534 113.138 48.2365 112.072 48.5265 110.764C48.8301 109.445 49.5047 108.303 50.5502 107.339L50.0697 106.79C49.1323 105.721 48.4064 105.412 47.8921 105.863C47.6349 106.088 47.5582 106.479 47.662 107.034C47.7675 107.564 47.9746 108.1 48.2833 108.644L46.2552 110.098ZM51.3549 112.27C51.7346 112.704 52.1816 112.695 52.6959 112.244C53.0479 111.935 53.3489 111.528 53.599 111.021L52.1446 109.28C51.5559 109.892 51.2178 110.476 51.1302 111.031C51.0308 111.573 51.1057 111.986 51.3549 112.27Z" fill="#2B4836"/>
<path d="M53.4103 88.9141C56.0804 92.6131 58.5705 95.8781 60.8807 98.7091C63.1909 101.54 64.8475 103.499 65.8504 104.586L63.1942 106.37C61.9549 104.965 60.2484 102.931 58.0747 100.267C55.8897 97.5895 53.4678 94.4081 50.8092 90.7231L53.4103 88.9141Z" fill="#2B4836"/>
<path d="M72.6591 96.1473C73.2046 95.7346 73.3894 94.7708 73.2138 93.2559L75.5832 92.9866C75.6689 93.6666 75.7075 94.2695 75.699 94.7951C75.7048 95.3099 75.5705 95.9081 75.2962 96.5897C75.022 97.2712 74.5762 97.8456 73.959 98.3126C73.0547 98.9969 72.0061 99.1922 70.8133 98.8985C69.6095 98.5904 68.5135 97.7833 67.5251 96.4771C66.3955 94.9843 65.6075 93.3911 65.161 91.6974C64.9376 90.8055 64.934 89.9505 65.1501 89.1324C65.3697 88.289 65.7593 87.6556 66.3191 87.232C66.8933 86.7975 67.4232 86.5432 67.9089 86.4692C68.3837 86.3807 68.8085 86.3753 69.1832 86.4529C69.5615 86.5053 69.9924 86.6871 70.4762 86.9982C70.9599 87.3093 71.3337 87.5795 71.5975 87.8088C71.8756 88.0272 72.2317 88.3785 72.6658 88.8626C73.2445 89.5082 73.7457 90.1108 74.1693 90.6706C73.26 91.8553 71.9916 93.2666 70.3642 94.9043C70.8417 95.4459 71.2898 95.8292 71.7083 96.0542C72.1269 96.2792 72.4438 96.3103 72.6591 96.1473ZM68.1311 89.179C67.8153 89.418 67.7672 89.951 67.9867 90.7781C68.2206 91.5943 68.631 92.4349 69.2179 93.3C69.8592 92.5665 70.4054 91.9161 70.8566 91.349C69.4989 89.5548 68.5904 88.8315 68.1311 89.179Z" fill="#2B4836"/>
<path d="M92.887 72.565C92.2517 72.9749 92.2926 74.0839 93.0096 75.892C93.723 76.9312 94.3921 77.9348 95.0167 78.9027C95.6414 79.8707 96.3139 80.9791 97.0342 82.2281L94.2562 83.6995C92.8668 81.447 92.0989 80.2073 91.9525 79.9804C90.1469 77.1824 88.6297 75.1302 87.401 73.8237L89.2196 72.9072C89.6085 73.2775 89.9784 73.5851 90.3292 73.83C90.0455 71.7637 90.2817 70.4865 91.0379 69.9985C91.658 69.5984 92.3782 69.5192 93.1984 69.7611L93.9554 72.2289C93.6061 72.2187 93.2499 72.3307 92.887 72.565Z" fill="#2B4836"/>
<path d="M100.366 70.0032C99.8822 68.6577 99.7177 67.3742 99.8724 66.1525C100.018 64.9154 100.617 63.9848 101.67 63.3607C102.723 62.7366 103.759 62.719 104.778 63.3079C105.802 63.8721 106.792 64.9594 107.747 66.5698C108.701 68.1802 109.925 70.4572 111.419 73.401L109.372 74.3948L108.745 73.7617C108.265 74.6112 107.646 75.2608 106.887 75.7105C106.129 76.1602 105.355 76.2842 104.566 76.0824C103.767 75.8651 103.088 75.2842 102.528 74.3397C101.968 73.3951 101.951 72.3068 102.476 71.0748C103.017 69.8337 103.89 68.8351 105.095 68.079L104.723 67.4519C103.998 66.2287 103.341 65.7914 102.753 66.1402C102.458 66.3146 102.311 66.6842 102.311 67.2492C102.318 67.7894 102.423 68.3549 102.627 68.9456L100.366 70.0032ZM104.98 73.0748C105.274 73.5703 105.715 73.6436 106.303 73.2949C106.706 73.0562 107.076 72.7109 107.415 72.2589L106.305 70.2804C105.614 70.7737 105.175 71.2853 104.987 71.8153C104.789 72.3298 104.787 72.7496 104.98 73.0748ZM98.8722 60.9702C99.0741 61.3109 99.3153 61.5237 99.5958 61.6085C99.8671 61.6779 100.158 61.6208 100.467 61.4372C100.792 61.2445 100.976 60.9368 101.019 60.5141C101.067 60.0667 100.991 59.6727 100.789 59.332C100.587 58.9914 100.35 58.7864 100.079 58.717C99.8077 58.6476 99.5095 58.7093 99.1843 58.9021C98.8746 59.0856 98.6908 59.3934 98.6329 59.8252C98.5905 60.2479 98.6703 60.6296 98.8722 60.9702ZM102.387 58.3219C102.791 59.0032 102.892 59.7909 102.689 60.6851C102.487 61.5792 101.991 62.2604 101.201 62.7284C100.427 63.1873 99.6806 63.3578 98.9619 63.2397C98.2496 63.097 97.6915 62.6849 97.2877 62.0036C96.8838 61.3223 96.7831 60.5346 96.9855 59.6404C97.1878 58.7463 97.6761 58.0698 98.4503 57.6109C99.24 57.1428 99.991 56.9801 100.703 57.1228C101.422 57.2409 101.983 57.6406 102.387 58.3219Z" fill="#2B4836"/>
<path d="M121.786 67.4813L118.59 68.8357C114.873 64.7458 112.166 61.4302 110.469 58.889L113.306 57.6664C115.147 60.4367 116.929 62.8505 118.651 64.9077C118.019 62.1808 117.099 58.8225 115.889 54.8328L118.571 53.6633C119.914 58.3173 120.986 62.9233 121.786 67.4813Z" fill="#2B4836"/>
<path d="M126.405 55.6217C126.033 54.2413 125.973 52.9486 126.227 51.7437C126.473 50.5225 127.146 49.6437 128.246 49.1074C129.346 48.5711 130.38 48.6378 131.347 49.3077C132.323 49.9535 133.221 51.1177 134.041 52.8004C134.861 54.4832 135.896 56.8523 137.145 59.9079L135.024 60.7318L134.451 60.0498C133.904 60.8574 133.233 61.4544 132.441 61.8409C131.648 62.2273 130.866 62.2879 130.096 62.0225C129.318 61.741 128.689 61.1067 128.207 60.1198C127.726 59.1328 127.798 58.0467 128.421 56.8616C129.061 55.6685 130.012 54.7443 131.275 54.0888L130.955 53.4335C130.332 52.1553 129.713 51.6661 129.099 51.9658C128.791 52.1156 128.614 52.4721 128.569 53.0352C128.531 53.5741 128.59 54.1463 128.744 54.7516L126.405 55.6217ZM130.754 59.0586C131.006 59.5764 131.44 59.6854 132.055 59.3857C132.475 59.1806 132.873 58.8666 133.248 58.4437L132.302 56.3814C131.573 56.8168 131.094 57.291 130.863 57.8039C130.625 58.3006 130.588 58.7188 130.754 59.0586Z" fill="#2B4836"/>
<path d="M143.901 45.5118C143.21 45.817 143.076 46.9187 143.5 48.8169C144.042 49.9551 144.545 51.0512 145.01 52.1052C145.475 53.1591 145.966 54.3594 146.481 55.7059L143.507 56.7232C142.488 54.2806 141.924 52.9358 141.815 52.6888C140.471 49.6422 139.294 47.3774 138.286 45.8943L140.226 45.2744C140.552 45.7011 140.869 46.0629 141.177 46.3598C141.221 44.2746 141.654 43.0504 142.478 42.687C143.153 42.3891 143.877 42.4239 144.649 42.7915L145.009 45.3475C144.666 45.2826 144.296 45.3374 143.901 45.5118Z" fill="#2B4836"/>
<path d="M157.361 48.3824C157.997 48.1311 158.434 47.2522 158.671 45.7457L161.026 46.122C160.926 46.8001 160.802 47.3912 160.652 47.8952C160.52 48.3927 160.23 48.9329 159.783 49.5159C159.336 50.099 158.752 50.5326 158.032 50.817C156.978 51.2336 155.915 51.1404 154.845 50.5374C153.768 49.9177 152.929 48.8461 152.327 47.3227C151.639 45.5816 151.307 43.8353 151.332 42.0839C151.356 41.1648 151.582 40.3402 152.009 39.61C152.447 38.8565 152.992 38.3508 153.645 38.0929C154.315 37.8284 154.894 37.7256 155.381 37.7846C155.863 37.8268 156.273 37.9355 156.613 38.1108C156.964 38.2627 157.33 38.5535 157.713 38.983C158.095 39.4125 158.383 39.773 158.575 40.0647C158.785 40.3497 159.034 40.7836 159.322 41.3665C159.706 42.1436 160.027 42.8586 160.285 43.5116C159.091 44.4089 157.491 45.4281 155.484 46.5692C155.798 47.2191 156.127 47.7085 156.47 48.0376C156.813 48.3666 157.11 48.4815 157.361 48.3824ZM154.868 40.4547C154.5 40.6002 154.311 41.1008 154.3 41.9564C154.307 42.8054 154.477 43.7254 154.81 44.7162C155.624 44.1816 156.325 43.7016 156.912 43.2763C156.085 41.1837 155.404 40.2431 154.868 40.4547Z" fill="#2B4836"/>
<path d="M170.846 35.0741C170.132 35.3239 169.912 36.4117 170.186 38.3374C170.637 39.5147 171.052 40.647 171.433 41.7343C171.813 42.8216 172.208 44.0567 172.616 45.4395L169.57 46.2197C168.747 43.7045 168.291 42.3195 168.201 42.0647C167.101 38.9218 166.106 36.5714 165.218 35.0135L167.2 34.5482C167.492 34.9993 167.779 35.3849 168.063 35.7051C168.271 33.6298 168.8 32.4435 169.649 32.1461C170.346 31.9022 171.064 31.9938 171.805 32.421L171.963 34.9975C171.626 34.9058 171.254 34.9313 170.846 35.0741Z" fill="#2B4836"/>
<path d="M180.283 36.6347L184.065 36.6874C184.386 38.3037 184.456 40.8581 184.274 44.3505L181.849 44.9175C181.424 41.9561 180.902 39.1951 180.283 36.6347Z" fill="#2B4836"/>
<path d="M206.339 21.8273C207.179 21.6262 207.911 21.9413 208.536 22.7728C209.178 23.6 209.652 24.6525 209.958 25.9305C210.26 27.1908 210.42 28.476 210.437 29.7859C210.472 31.0917 210.296 32.2534 209.911 33.2712C209.538 34.2672 208.976 34.8553 208.223 35.0355C207.12 35.2995 206.093 35.0272 205.14 34.2187C205.199 34.4638 205.3 34.8097 205.444 35.2564L203.077 35.5732C202.469 33.4977 201.742 30.6919 200.896 27.1558C200.045 23.6021 199.289 20.0167 198.626 16.3995L201.683 15.9456C202.298 19.4445 202.943 22.6031 203.618 25.4215C204.346 23.2851 205.253 22.0871 206.339 21.8273ZM204.692 29.9116L205.209 31.9535C205.49 32.2008 205.724 32.3669 205.911 32.4517C206.094 32.519 206.343 32.515 206.658 32.4396C207.096 32.3348 207.365 31.7612 207.468 30.7188C207.566 29.6589 207.51 28.6913 207.3 27.816C207.091 26.9407 206.887 26.3231 206.69 25.9631C206.51 25.599 206.263 25.4546 205.948 25.53C205.283 25.6892 204.864 27.1498 204.692 29.9116Z" fill="#2B4836"/>
<path d="M216.074 24.4878C216.085 23.0581 216.375 21.7969 216.942 20.7041C217.507 19.5937 218.32 18.9407 219.382 18.7453C220.462 18.5466 221.385 18.7885 222.151 19.4711C222.729 18.6327 223.531 18.119 224.558 17.9301C225.532 17.7509 226.422 17.9624 227.228 18.5644C227.738 18.9465 228.245 19.7134 228.75 20.865C229.122 21.6934 229.459 22.9307 229.762 24.5771C228.418 25.2272 226.65 25.9184 224.461 26.6507C224.644 27.3491 224.872 27.8928 225.145 28.2818C225.418 28.6708 225.687 28.8409 225.953 28.792C226.626 28.6683 227.224 27.8902 227.747 26.4578L229.985 27.2814C229.756 27.9275 229.52 28.4834 229.276 28.9492C229.05 29.4118 228.662 29.8859 228.11 30.3717C227.559 30.8575 226.85 31.1801 225.983 31.3398C225.115 31.4994 224.263 31.2444 223.426 30.5748C222.775 31.3168 221.857 31.7969 220.671 32.0151C219.503 32.2301 218.583 32.1065 217.912 31.6443C217.238 31.1643 216.802 30.3844 216.603 29.3045C216.405 28.2247 216.765 27.1975 217.684 26.2232C218.62 25.2455 219.784 24.6103 221.176 24.3176L221.044 23.6006C220.787 22.2021 220.322 21.5647 219.649 21.6885C219.313 21.7504 219.047 22.0464 218.852 22.5765C218.671 23.0857 218.574 23.6526 218.561 24.2773L216.074 24.4878ZM225.037 20.5324C224.648 20.6041 224.365 21.0587 224.19 21.8962C224.032 22.7305 224.021 23.666 224.157 24.7025C225.06 24.3351 225.84 23.9994 226.498 23.6953C226.09 21.4825 225.604 20.4282 225.037 20.5324ZM219.341 28.9655C219.445 29.5319 219.834 29.7533 220.507 29.6295C220.967 29.5448 221.434 29.349 221.908 29.0421L221.551 26.8018C220.732 27.0257 220.143 27.3538 219.783 27.786C219.42 28.2006 219.273 28.5937 219.341 28.9655Z" fill="#2B4836"/>
<path d="M243.527 18.1934C242.778 18.2937 242.343 19.3145 242.221 21.2558C242.424 22.4998 242.602 23.6928 242.755 24.8346C242.908 25.9764 243.044 27.2657 243.164 28.7026L240.023 28.8505C239.726 26.2208 239.559 24.7721 239.523 24.5045C239.082 21.2039 238.583 18.7009 238.028 16.9955L240.064 16.9409C240.258 17.4416 240.461 17.8774 240.674 18.2484C241.298 16.2581 242.056 15.2032 242.948 15.0838C243.679 14.9859 244.364 15.221 245.003 15.7892L244.637 18.3444C244.325 18.1864 243.956 18.136 243.527 18.1934Z" fill="#2B4836"/>
<path d="M255.653 24.6989C256.334 24.6349 256.999 23.9125 257.646 22.5319L259.803 23.5496C259.518 24.173 259.234 24.7059 258.95 25.1484C258.684 25.5892 258.255 26.0273 257.663 26.4626C257.071 26.8978 256.39 27.1517 255.619 27.2241C254.49 27.3302 253.496 26.9446 252.636 26.0672C251.775 25.1719 251.267 23.9088 251.114 22.278C250.939 20.4142 251.107 18.6447 251.618 16.9695C251.898 16.0935 252.344 15.3645 252.959 14.7825C253.589 14.1809 254.254 13.8472 254.953 13.7815C255.67 13.7142 256.254 13.7768 256.706 13.9693C257.156 14.1439 257.52 14.3628 257.798 14.626C258.092 14.8695 258.363 15.2509 258.611 15.77C258.858 16.2891 259.034 16.7155 259.138 17.0493C259.259 17.3814 259.377 17.8675 259.492 18.5076C259.644 19.361 259.753 20.1372 259.819 20.8361C258.423 21.3651 256.601 21.8979 254.356 22.4344C254.477 23.1461 254.656 23.7078 254.894 24.1194C255.131 24.531 255.384 24.7241 255.653 24.6989ZM255.469 16.3907C255.075 16.4277 254.753 16.8557 254.505 17.6745C254.274 18.4917 254.181 19.4225 254.225 20.4669C255.156 20.1806 255.963 19.9149 256.645 19.67C256.435 17.4299 256.043 16.3368 255.469 16.3907Z" fill="#2B4836"/>
<path d="M272.481 13.1913L272.345 9.84601C272.284 8.60549 272.188 7.1955 272.056 5.61603L275.225 5.73133C275.323 7.00605 275.455 9.32439 275.619 12.6864C275.783 16.0304 275.85 20.3522 275.821 25.652L273.41 25.5537C273.321 24.8372 273.226 23.9948 273.125 23.0266C272.427 24.6106 271.629 25.4246 270.73 25.4686C269.346 25.5363 268.363 25.1519 267.781 24.3153C267.2 23.4787 266.869 22.2424 266.789 20.6064C266.708 18.9524 266.975 17.2272 267.59 15.431C268.223 13.634 268.989 12.7134 269.888 12.6695C270.697 12.6299 271.561 12.8038 272.481 13.1913ZM272.685 15.6954C272.219 15.3758 271.761 15.227 271.311 15.249C270.88 15.2701 270.531 15.8728 270.264 17.0573C269.997 18.2237 269.894 19.4362 269.956 20.6947C270.017 21.9532 270.354 22.5675 270.965 22.5376C271.199 22.5262 271.495 22.1242 271.852 21.3318C272.209 20.5214 272.52 19.506 272.784 18.2856L272.685 15.6954Z" fill="#2B4836"/>
<path d="M290.524 11.4861L293.122 12.9876C291.647 17.6196 290.142 23.7638 288.607 31.4201L285.636 31.1622C285.919 29.7391 286.388 27.7751 287.043 25.2704C285.302 21.9655 284.196 17.794 283.725 12.7558L286.75 13.0405C287.034 16.3514 287.477 19.1756 288.081 21.5132C288.893 17.6578 289.708 14.3155 290.524 11.4861Z" fill="#2B4836"/>
<path d="M303.417 28.9005C303.975 28.9224 304.447 28.3646 304.834 27.227C305.22 26.1073 305.447 24.7021 305.514 23.0114C304.493 24.6826 303.47 25.4979 302.445 25.4575C301.438 25.4178 300.633 25.0439 300.03 24.3356C299.446 23.61 299.182 22.5458 299.237 21.1429C299.293 19.722 299.591 18.3286 300.132 16.9629C300.672 15.5791 301.31 14.4873 302.044 13.6876C302.797 12.8706 303.497 12.4749 304.144 12.5004C305.278 12.545 306.303 13.0448 307.22 13.9996L309.098 14.3438C308.818 15.5037 308.63 17.2977 308.534 19.7258C308.439 22.136 308.297 23.9137 308.108 25.0592C307.937 26.1873 307.678 27.294 307.329 28.3791C306.98 29.4642 306.496 30.3188 305.877 30.9429C305.258 31.567 304.462 31.8599 303.491 31.8216C302.52 31.7834 301.609 31.3512 300.759 30.5251C299.908 29.7169 299.235 28.7537 298.738 27.6353L301.043 26.7533C301.69 28.1479 302.482 28.8636 303.417 28.9005ZM304.71 15.2788C304.261 15.2611 303.777 15.8905 303.258 17.1671C302.757 18.4444 302.478 19.8115 302.421 21.2683C302.399 21.8259 302.454 22.2514 302.587 22.5448C302.737 22.839 302.902 22.9896 303.082 22.9967C303.28 23.0045 303.539 22.8346 303.859 22.4869C304.179 22.1392 304.525 21.5764 304.898 20.7985C305.289 20.0213 305.584 19.1592 305.784 18.2124L305.919 16.1641C305.419 15.586 305.016 15.2909 304.71 15.2788Z" fill="#2B4836"/>
<path d="M322.461 15.1655L322.259 17.7226C321.398 17.6546 320.733 17.6111 320.265 17.5923C320.07 19.3824 319.805 22.3949 319.471 26.6298L316.318 26.083C316.566 22.9428 316.817 20.1007 317.072 17.5569C316.803 17.5357 316.288 17.5402 315.527 17.5704L315.298 15.3314C315.736 15.2757 316.418 15.2121 317.344 15.1408C317.485 13.8158 317.71 11.8835 318.019 9.34389L321.198 9.89278C320.95 11.6608 320.734 13.377 320.548 15.0416C320.998 15.059 321.636 15.1004 322.461 15.1655Z" fill="#2B4836"/>
<path d="M329.779 14.3056L332.805 14.9428L331.365 27.8225L328.339 27.1853L329.779 14.3056ZM330.522 9.607L333.488 10.2919L332.884 13.2671L329.92 12.5554L330.522 9.607Z" fill="#2B4836"/>
<path d="M341.644 32.4621C342.196 32.5444 342.726 32.0411 343.234 30.9521C343.74 29.881 344.117 28.5086 344.367 26.8352C343.171 28.3858 342.066 29.0854 341.051 28.9341C340.054 28.7854 339.295 28.3264 338.772 27.5569C338.27 26.7723 338.123 25.6857 338.33 24.2971C338.54 22.8906 338.987 21.5378 339.672 20.2387C340.36 18.9217 341.112 17.9055 341.929 17.1901C342.766 16.4595 343.505 16.142 344.145 16.2376C345.267 16.4048 346.232 17.0128 347.04 18.0615L348.87 18.6073C348.466 19.73 348.084 21.493 347.726 23.8964C347.37 26.2821 347.036 28.034 346.724 29.1521C346.432 30.2551 346.054 31.3271 345.589 32.3679C345.125 33.4088 344.551 34.2059 343.868 34.7592C343.185 35.3125 342.362 35.5175 341.401 35.3741C340.44 35.2308 339.581 34.7024 338.826 33.789C338.068 32.8933 337.502 31.8627 337.13 30.6971L339.517 30.0702C340.009 31.5268 340.718 32.3241 341.644 32.4621ZM344.407 19.061C343.962 18.9947 343.412 19.5679 342.758 20.7807C342.122 21.9962 341.696 23.3249 341.481 24.767C341.399 25.3189 341.408 25.7479 341.508 26.0539C341.626 26.3627 341.773 26.5303 341.952 26.5569C342.147 26.5861 342.423 26.4452 342.779 26.1343C343.135 25.8234 343.54 25.3014 343.995 24.5685C344.468 23.8383 344.855 23.0133 345.156 22.0937L345.512 20.0721C345.078 19.4432 344.71 19.1062 344.407 19.061Z" fill="#2B4836"/>
<path d="M359.251 20.6448C360.258 19.7938 361.15 19.4431 361.928 19.5928C362.723 19.7459 363.317 20.1352 363.71 20.7607C364.399 21.8465 364.608 23.0964 364.336 24.5105C363.843 27.0735 363.23 29.7326 362.498 32.4879L359.479 31.6044C360.102 29.0299 360.656 26.4877 361.139 23.9777C361.319 23.0409 361.171 22.5266 360.693 22.4348C360.128 22.3259 359.28 23.4458 358.15 25.7946C357.774 27.5553 357.3 29.5445 356.726 31.7621L353.68 30.8735C354.495 27.8775 355.263 24.5059 355.984 20.7586C356.706 17.0114 357.224 13.9858 357.539 11.6818L360.585 12.5704C360.246 15.0899 359.802 17.7814 359.251 20.6448Z" fill="#2B4836"/>
<path d="M371.917 32.594C372.583 32.7514 373.443 32.2798 374.499 31.1792L376.216 32.8339C375.747 33.3332 375.307 33.747 374.896 34.0754C374.503 34.4078 373.957 34.6855 373.257 34.9084C372.556 35.1312 371.83 35.1536 371.077 34.9755C369.973 34.7145 369.154 34.0307 368.621 32.9242C368.091 31.8002 368.015 30.4411 368.392 28.8471C368.823 27.0254 369.549 25.4029 370.57 23.9796C371.115 23.2392 371.771 22.6916 372.539 22.3369C373.329 21.9688 374.066 21.8655 374.749 22.0271C375.45 22.1928 375.983 22.4392 376.35 22.7664C376.721 23.076 376.995 23.3999 377.174 23.7382C377.375 24.0631 377.51 24.5111 377.578 25.0821C377.646 25.6532 377.676 26.1134 377.668 26.4628C377.676 26.8164 377.633 27.3146 377.536 27.9577C377.407 28.8151 377.262 29.5853 377.101 30.2685C375.608 30.3224 373.712 30.244 371.413 30.0332C371.3 30.7463 371.29 31.3359 371.383 31.8018C371.476 32.2678 371.654 32.5319 371.917 32.594ZM374.403 24.6642C374.018 24.5731 373.576 24.8756 373.078 25.5718C372.598 26.2721 372.212 27.124 371.919 28.1276C372.893 28.1544 373.742 28.1611 374.467 28.1475C374.985 25.9579 374.963 24.7968 374.403 24.6642Z" fill="#2B4836"/>
<path d="M391.543 27.0793L392.485 23.8664C392.825 22.6717 393.185 21.3052 393.566 19.7669L396.531 20.8906C396.216 22.1297 395.598 24.3681 394.678 27.6057C393.762 30.8261 392.442 34.942 390.718 39.9534L388.465 39.0884C388.61 38.3811 388.79 37.5526 389.004 36.6029C387.836 37.8802 386.819 38.3957 385.953 38.1496C384.62 37.7705 383.812 37.0916 383.529 36.1128C383.246 35.1341 383.328 33.8569 383.776 32.2814C384.229 30.6885 385.034 29.1397 386.192 27.635C387.367 26.1352 388.388 25.5083 389.253 25.7545C390.032 25.976 390.796 26.4177 391.543 27.0793ZM390.934 29.5167C390.595 29.0647 390.209 28.7772 389.776 28.6541C389.361 28.5359 388.837 28.9952 388.205 30.032C387.579 31.0515 387.093 32.1672 386.748 33.3791C386.404 34.5911 386.526 35.2808 387.114 35.4481C387.339 35.5121 387.748 35.226 388.341 34.5899C388.938 33.9364 389.558 33.0739 390.199 32.0025L390.934 29.5167Z" fill="#2B4836"/>
<path d="M414.775 42.4128C414.063 44.3184 414.129 45.4286 414.973 45.7432C415.344 45.8817 415.854 45.4669 416.503 44.4988C417.159 43.5139 417.669 42.5324 418.034 41.5543C418.84 39.3957 418.889 38.1842 418.18 37.9199C417.725 37.75 417.137 38.1934 416.416 39.25C415.718 40.2961 415.171 41.3503 414.775 42.4128ZM411.9 41.0807C412.485 39.5123 413.378 38.0973 414.579 36.8355C415.2 36.2025 415.901 35.7631 416.685 35.5175C417.491 35.2613 418.274 35.2748 419.033 35.558C419.792 35.8411 420.375 36.2605 420.782 36.816C421.213 37.361 421.465 37.9736 421.537 38.654C421.672 39.9916 421.491 41.3265 420.994 42.6587C420.308 44.4969 419.318 45.9911 418.024 47.1414C416.754 48.2811 415.444 48.5992 414.095 48.0958C411.278 47.0448 410.547 44.7065 411.9 41.0807Z" fill="#2B4836"/>
<path d="M427.404 56.5189C427.918 56.7365 428.557 56.3816 429.321 55.4542C430.079 54.5434 430.787 53.3089 431.447 51.7509C429.902 52.9535 428.657 53.3547 427.712 52.9546C426.784 52.5615 426.163 51.9271 425.849 51.0516C425.56 50.1665 425.689 49.0776 426.236 47.7847C426.791 46.4753 427.562 45.2772 428.55 44.1905C429.545 43.0872 430.527 42.2912 431.497 41.8026C432.489 41.3043 433.284 41.1816 433.881 41.4343C434.925 41.8765 435.708 42.7064 436.228 43.9237L437.863 44.9094C437.191 45.8955 436.382 47.5074 435.434 49.745C434.493 51.966 433.732 53.5788 433.15 54.5834C432.592 55.5785 431.958 56.5219 431.248 57.4136C430.538 58.3053 429.783 58.9337 428.983 59.2988C428.184 59.6638 427.336 59.6568 426.441 59.2777C425.546 58.8987 424.847 58.1725 424.344 57.0992C423.833 56.0426 423.544 54.9034 423.475 53.6817L425.942 53.6712C426.055 55.2046 426.542 56.1539 427.404 56.5189ZM433.428 44.2335C433.014 44.058 432.339 44.4757 431.402 45.4865C430.483 46.5044 429.738 47.6847 429.17 49.0272C428.952 49.541 428.854 49.9586 428.874 50.28C428.911 50.6083 429.012 50.8076 429.178 50.8778C429.36 50.9551 429.662 50.8876 430.084 50.6754C430.507 50.4633 431.03 50.0592 431.653 49.4633C432.294 48.8744 432.875 48.1723 433.396 47.357L434.246 45.4886C433.983 44.7712 433.71 44.3528 433.428 44.2335Z" fill="#2B4836"/>
<path d="M456.88 52.9773C457.989 50.8152 459.18 49.2818 460.453 48.3772C461.751 47.4648 462.904 47.2673 463.913 47.7849C464.938 48.3107 465.448 49.2296 465.442 50.5418C465.461 51.8461 465.006 53.4032 464.078 55.213L461.967 53.8267C462.887 52.0329 463.067 50.9923 462.506 50.7047C462.026 50.4583 461.087 51.6964 459.691 54.4191L459.333 55.1158C460.447 55.5861 461.341 55.9938 462.014 56.3389L460.867 58.5731C459.762 58.0062 458.877 57.6027 458.211 57.3623C456.954 59.8128 455.646 62.5807 454.286 65.666L451.623 63.9359C452.628 61.66 453.822 59.1164 455.203 56.3049C454.754 56.1554 454.437 56.0636 454.252 56.0295L454.857 53.6086C455.042 53.6427 455.535 53.7846 456.338 54.0344L456.88 52.9773Z" fill="#2B4836"/>
<path d="M464.962 61.7233C465.895 60.6404 466.932 59.8659 468.072 59.3997C469.22 58.9179 470.263 58.946 471.199 59.4841C472.151 60.031 472.699 60.8126 472.842 61.8288C473.825 61.5632 474.769 61.6904 475.674 62.2105C476.532 62.7037 477.074 63.4406 477.3 64.4213C477.441 65.0423 477.332 65.9551 476.972 67.1599C476.72 68.0323 476.177 69.1942 475.343 70.6457C473.897 70.2717 472.102 69.6558 469.959 68.7979C469.647 69.4491 469.469 70.0113 469.426 70.4846C469.382 70.9578 469.477 71.2616 469.711 71.3961C470.305 71.7369 471.264 71.5304 472.59 70.7766L473.764 72.8523C473.171 73.197 472.631 73.4681 472.144 73.6657C471.673 73.8722 471.07 73.9825 470.335 73.9964C469.6 74.0103 468.851 73.7975 468.086 73.3582C467.321 72.9188 466.836 72.1731 466.631 71.121C465.655 71.2661 464.644 71.0382 463.598 70.4375C462.568 69.8456 461.947 69.1565 461.735 68.3701C461.531 67.5682 461.703 66.6911 462.25 65.7391C462.797 64.787 463.736 64.2366 465.067 64.0879C466.413 63.9482 467.712 64.2169 468.963 64.8941L469.326 64.262C470.035 63.029 470.092 62.2421 469.499 61.9014C469.203 61.731 468.808 61.7848 468.317 62.0627C467.849 62.334 467.409 62.7036 466.995 63.1715L464.962 61.7233ZM474.356 64.5048C474.012 64.3075 473.503 64.4715 472.827 64.9969C472.168 65.5312 471.554 66.2375 470.987 67.1158C471.913 67.4194 472.725 67.668 473.424 67.8616C474.544 65.9107 474.855 64.7917 474.356 64.5048ZM464.557 67.2515C464.27 67.7509 464.423 68.171 465.016 68.5118C465.422 68.7449 465.905 68.8979 466.465 68.9706L467.642 67.031C466.873 66.672 466.211 66.5409 465.657 66.6379C465.112 66.7192 464.745 66.9237 464.557 67.2515Z" fill="#2B4836"/>
<path d="M494.24 65.8333C491.564 69.5279 489.243 72.9157 487.279 75.9966C485.314 79.0775 483.973 81.2644 483.255 82.5573L480.729 80.594C481.675 78.9768 483.072 76.7189 484.92 73.8201C486.778 70.9061 489.041 67.6094 491.707 63.93L494.24 65.8333Z" fill="#2B4836"/>
<path d="M503.599 72.0819C500.813 75.6949 498.393 79.0118 496.337 82.0327C494.281 85.0535 492.875 87.1994 492.119 88.4703L489.653 86.4323C490.646 84.8442 492.11 82.629 494.044 79.7867C495.989 76.9295 498.349 73.7018 501.124 70.1037L503.599 72.0819Z" fill="#2B4836"/>
<path d="M502.15 92.5924C502.701 92.9977 503.678 92.9005 505.08 92.3006L506.013 94.4952C505.385 94.771 504.818 94.9797 504.312 95.1212C503.82 95.2734 503.209 95.3151 502.477 95.2463C501.746 95.1775 501.068 94.9138 500.445 94.4552C499.531 93.7833 499.045 92.8337 498.987 91.6066C498.94 90.365 499.401 89.0845 500.372 87.765C501.481 86.257 502.784 85.0478 504.28 84.1375C505.071 83.6693 505.89 83.4223 506.736 83.3964C507.607 83.3667 508.325 83.5598 508.89 83.9758C509.47 84.4024 509.865 84.8379 510.074 85.2824C510.294 85.7124 510.421 86.118 510.453 86.4993C510.511 86.8768 510.459 87.3417 510.299 87.894C510.138 88.4464 509.986 88.8816 509.841 89.1998C509.711 89.5286 509.475 89.97 509.135 90.524C508.681 91.2626 508.246 91.9147 507.83 92.4802C506.435 91.946 504.721 91.1321 502.688 90.0385C502.305 90.6505 502.065 91.1892 501.969 91.6545C501.872 92.1198 501.933 92.4325 502.15 92.5924ZM507.54 86.2672C507.221 86.0326 506.696 86.1383 505.966 86.5843C505.25 87.041 504.561 87.6738 503.899 88.4828C504.785 88.8886 505.564 89.2269 506.236 89.4979C507.57 87.6854 508.004 86.6085 507.54 86.2672Z" fill="#2B4836"/>
<path d="M519.759 97.8798C520.437 97.0384 520.565 96.4484 520.144 96.1099C519.934 95.9406 519.653 95.8878 519.301 95.9514C518.975 96.0123 518.671 96.218 518.389 96.5686C518.118 96.9051 517.955 97.2364 517.901 97.5623C517.861 97.8995 517.925 98.3214 518.095 98.8279C518.291 99.3317 518.43 99.7327 518.514 100.031C518.622 100.326 518.721 100.706 518.81 101.17C518.978 102.138 518.741 103.021 518.098 103.82C517.466 104.606 516.651 105.001 515.653 105.007C514.669 105.024 513.805 104.733 513.062 104.135C512.319 103.537 511.804 102.799 511.517 101.921C511.255 101.04 511.185 100.151 511.305 99.2551L513.474 98.8861C513.256 100.305 513.455 101.263 514.073 101.759C514.283 101.929 514.51 102.019 514.755 102.031C515.011 102.029 515.223 101.923 515.392 101.713C515.754 101.264 515.764 100.591 515.424 99.693C515.041 98.7614 514.84 97.9062 514.82 97.1275C514.799 96.3487 515.128 95.5387 515.805 94.6973C516.493 93.8419 517.459 93.3598 518.702 93.251C519.956 93.1281 520.983 93.3883 521.782 94.0316C522.595 94.6861 523.008 95.4801 523.019 96.4134C523.056 97.344 522.696 98.2791 521.94 99.2186C521.635 99.5972 521.266 99.97 520.832 100.337L519.053 98.6283C519.355 98.3396 519.59 98.0901 519.759 97.8798Z" fill="#2B4836"/>
<path d="M531.894 108.139C532.607 107.328 532.761 106.744 532.355 106.387C532.153 106.209 531.874 106.144 531.52 106.192C531.192 106.239 530.879 106.431 530.582 106.769C530.297 107.094 530.12 107.418 530.051 107.741C529.996 108.076 530.043 108.5 530.191 109.014C530.364 109.526 530.486 109.932 530.556 110.234C530.652 110.534 530.734 110.918 530.802 111.385C530.929 112.359 530.653 113.231 529.976 114.002C529.31 114.759 528.479 115.119 527.482 115.081C526.498 115.055 525.648 114.727 524.931 114.097C524.215 113.467 523.732 112.707 523.484 111.818C523.261 110.927 523.229 110.036 523.388 109.146L525.571 108.871C525.291 110.279 525.449 111.245 526.044 111.768C526.247 111.946 526.47 112.047 526.714 112.069C526.97 112.078 527.187 111.981 527.365 111.779C527.745 111.346 527.785 110.674 527.484 109.762C527.142 108.815 526.978 107.952 526.992 107.173C527.005 106.394 527.369 105.599 528.082 104.788C528.807 103.963 529.792 103.523 531.039 103.469C532.297 103.4 533.312 103.705 534.082 104.382C534.866 105.072 535.244 105.883 535.215 106.816C535.211 107.747 534.811 108.665 534.014 109.571C533.694 109.936 533.308 110.293 532.859 110.64L531.156 108.856C531.47 108.581 531.716 108.342 531.894 108.139Z" fill="#2B4836"/>
<path d="M534.152 121.97C535.394 120.567 537.284 118.539 539.823 115.886C542.361 113.232 545.14 110.522 548.159 107.756L550.274 110.116C547.031 113.116 543.997 116.092 541.172 119.045C544.105 118.687 546.656 118.051 548.826 117.137L549.08 119.996C547.188 120.802 545.114 121.408 542.857 121.815C542.739 123.969 542.488 125.846 542.103 127.446L539.277 127.432C539.62 125.668 539.791 123.353 539.791 120.489C538.41 121.932 537.223 123.225 536.23 124.368L534.152 121.97Z" fill="#2B4836"/>
<path d="M550.121 126.13C551.32 125.351 552.531 124.896 553.756 124.766C554.993 124.623 556.036 124.992 556.886 125.874C557.735 126.755 557.99 127.759 557.651 128.886C557.337 130.013 556.506 131.226 555.158 132.525C553.81 133.824 551.875 135.539 549.353 137.669L547.916 135.904L548.388 135.149C547.451 134.877 546.677 134.424 546.065 133.789C545.453 133.153 545.154 132.429 545.169 131.614C545.197 130.787 545.607 129.993 546.397 129.231C547.188 128.469 548.243 128.202 549.563 128.43C550.895 128.672 552.068 129.292 553.08 130.291L553.605 129.785C554.629 128.798 554.904 128.059 554.429 127.566C554.192 127.32 553.798 127.261 553.249 127.391C552.724 127.522 552.198 127.754 551.67 128.088L550.121 126.13ZM548.192 131.327C547.777 131.726 547.807 132.172 548.281 132.665C548.606 133.002 549.027 133.283 549.545 133.509L551.216 131.975C550.577 131.415 549.978 131.105 549.419 131.044C548.873 130.97 548.464 131.064 548.192 131.327Z" fill="#2B4836"/>
<path d="M568.529 139.025C569.102 139.672 569.168 140.466 568.729 141.409C568.301 142.365 567.595 143.278 566.611 144.149C565.641 145.008 564.582 145.754 563.434 146.385C562.298 147.031 561.191 147.422 560.111 147.561C559.057 147.701 558.274 147.481 557.76 146.902C557.009 146.053 556.765 145.018 557.031 143.797C556.842 143.964 556.585 144.216 556.258 144.553L554.865 142.613C556.41 141.101 558.544 139.139 561.266 136.729C564.002 134.306 566.81 131.952 569.69 129.666L571.529 132.149C568.731 134.338 566.247 136.393 564.077 138.315C566.305 137.953 567.789 138.189 568.529 139.025ZM560.621 141.375L559.062 142.792C558.976 143.156 558.94 143.441 558.953 143.646C558.979 143.839 559.1 144.057 559.315 144.299C559.613 144.636 560.246 144.604 561.214 144.204C562.195 143.792 563.023 143.287 563.697 142.691C564.371 142.094 564.82 141.624 565.045 141.281C565.282 140.951 565.293 140.665 565.078 140.422C564.624 139.91 563.139 140.228 560.621 141.375Z" fill="#2B4836"/>
</svg>
